# xmcd
#
# Track frame offsets:
#	150
#	15022
#	27877
#	41330
#	55647
#	69960
#	83585
#	96782
#	111129
#	126490
#	142847
#	155925
#
# Disc length: 2266 seconds
#
# Revision: 1
# Processed by: cddbd v1.5.1PL0 Copyright (c) Steve Scherf et al.
# Submitted via: EasyCDDAExtractor 6.5.7.1
#
DISCID=8a08d80c
DTITLE=Marca de Galpão - Nossa Marca
DYEAR=2000
DGENRE=Gaúcha
TTITLE0=Surungo do Tio Naná
TTITLE1=Eu, Você e o Chamamé
TTITLE2=Nossa Marca
TTITLE3=O Par da Noite
TTITLE4=Sem Você
TTITLE5=Mateando Sozinho
TTITLE6=Dançando com Ela
TTITLE7=Xote Campeiro
TTITLE8=Vim Pra Fandanguear
TTITLE9=Dia da Bailanta
TTITLE10=Morena dos Olhos Verdes
TTITLE11=Meu Santo Antônio
EXTD=
EXTT0=
EXTT1=
EXTT2=
EXTT3=
EXTT4=
EXTT5=
EXTT6=
EXTT7=
EXTT8=
EXTT9=
EXTT10=
EXTT11=
PLAYORDER=
